<svg width="1000" height="200" viewBox="0 0 1000 200" xmlns="http://www.w3.org/2000/svg">
  <g fill="#0E0E11">
    <path d="M0 85.23C0 48.34 27 20.79 65.2 20.79C103.1 20.79 130.9 48.34 130.9 85.74C130.9 122.38 104.11 149.67 63.9 149.67H32.85V198.19C32.85 199.96 32.6 200.19 30.85 200.19H2C0.23 200.19 0 199.94 0 198.19L0 85.23ZM98.05 85.48C98.05 66 85.92 51.12 65.2 51.12C44.2 51.12 32.85 66.03 32.85 85.23V119.35H63.93C85.92 119.35 98.05 104.94 98.05 85.48Z" />
    <path d="M226.51 20.79C187.84 20.79 160.3 49.09 160.3 87.25C160.3 123.39 185.06 152.2 228.53 152.2C245.21 152.2 261.13 147.9 272.53 138.8C272.743 138.618 272.884 138.367 272.93 138.091C272.976 137.814 272.923 137.531 272.78 137.29L257.37 117.58C257.101 117.245 256.711 117.029 256.284 116.981C255.857 116.932 255.428 117.054 255.09 117.32C247.289 121.945 238.389 124.391 229.32 124.4C206.57 124.4 196.47 114.54 192.93 100.65H284.66C284.978 100.677 285.299 100.639 285.601 100.538C285.904 100.436 286.183 100.273 286.42 100.059C286.658 99.8456 286.848 99.5853 286.981 99.2947C287.113 99.0041 287.184 98.6893 287.19 98.37C287.44 96.6 287.69 90.03 287.69 85.99C287.66 47.07 263.91 20.79 226.51 20.79ZM192.14 76.89C194.92 58.7 206.04 47.58 225.24 47.58C244.95 47.58 256.07 59.2 258.35 76.89H192.14Z" />
    <path d="M375.14 20.79C387.27 20.79 396.14 23.79 399.14 27.11C399.65 27.62 399.65 28.11 399.14 29.11L388.78 52.11C388.28 53.11 387.78 53.37 387.01 53.37C385.75 53.37 382.72 52.37 377.92 52.37C360.73 52.37 352.14 65.01 352.14 82.69V147.69C352.14 149.46 351.89 149.69 350.14 149.69H321.31C319.54 149.69 319.31 149.44 319.31 147.69V77.69C319.29 43.28 342.29 20.79 375.14 20.79Z" />
    <path d="M528.27 112.52C528.27 134 511.34 153.21 476.21 153.21C447.66 153.21 430.21 140.57 422.89 131.48C422.656 131.199 422.527 130.846 422.527 130.48C422.527 130.114 422.656 129.761 422.89 129.48L435.53 109.77C435.78 109.27 436.79 109.27 437.3 109.77C446.14 118.11 458.02 127.71 476.21 127.71C488.09 127.71 493.9 123.71 493.9 116.85C493.9 111.04 489.35 106.99 458.27 98.65C429 90.79 422.14 74.11 422.14 60.47C422.14 38.99 439.07 19.78 474.19 19.78C502.75 19.78 520.19 32.42 527.51 41.51C527.748 41.7888 527.879 42.1434 527.879 42.51C527.879 42.8766 527.748 43.2312 527.51 43.51L514.88 63.25C514.62 63.75 513.61 63.75 513.11 63.25C504.26 54.91 492.39 45.25 474.19 45.25C462.31 45.25 456.5 49.3 456.5 56.12C456.5 61.93 461.05 65.98 492.13 74.32C521.45 82.2 528.27 98.88 528.27 112.52Z" />
    <path d="M557.33 86.5C557.33 49.6 584.87 20.79 623.28 20.79C661.19 20.79 688.73 49.6 688.73 86.5C688.73 123.64 661.19 152.2 623.28 152.2C584.87 152.2 557.33 123.64 557.33 86.5ZM623 121.87C644 121.87 655.85 106.21 655.85 86.75C655.85 67.29 644 51.12 623 51.12C602 51.12 590.15 67.29 590.15 86.75C590.15 106.21 602.06 121.87 623 121.87Z" />
    <path d="M720.32 147.65V82.7C720.32 46.57 739.27 20.79 779.96 20.79C817.1 20.79 839.09 42.27 839.09 82.7V147.7C839.09 149.47 838.83 149.7 837.09 149.7H808.26C806.49 149.7 806.26 149.45 806.26 147.7V87.76C806.26 67.54 799.94 52.38 779.72 52.38C759.5 52.38 753.19 67.54 753.19 87.76V147.65C753.19 149.42 752.94 149.65 751.19 149.65H722.34C720.57 149.67 720.32 149.42 720.32 147.65Z" />
    <path d="M998 149.67H937.1C898.69 149.67 871.1 122.38 871.1 85.48C871.1 48.34 898.9 20.79 936.1 20.79C973 20.79 1000 48.34 1000 85.23V147.65C1000 149.42 999.75 149.67 998 149.67ZM937.1 119.35H967.17V85.23C967.17 66.03 955.8 51.12 936.09 51.12C916.09 51.12 903.99 66.03 903.99 85.48C903.99 104.93 915.85 119.35 937.08 119.35H937.1Z" />
  </g>
</svg>
